<svg width="186" height="132" viewBox="0 0 186 132" fill="none" xmlns="http://www.w3.org/2000/svg">
<g clip-path="url(#clip0_20_4546)">
<path d="M93 0C98.1441 0 102.3 3.68672 102.3 8.25V42.307C102.3 46.5352 104.741 50.4797 108.752 52.7484L111.6 54.3469V42.6164C111.6 32.7422 120.609 24.75 131.74 24.75C138.047 24.75 144.179 27.3797 147.957 32.175C152.433 37.8727 160.832 49.0359 168.592 62.3133C176.293 75.4359 183.82 91.3172 185.913 106.219C185.971 106.554 185.971 106.889 185.971 107.25V109.055C185.971 121.713 174.404 132 160.105 132C157.984 132 155.891 131.768 153.828 131.304L132.699 126.612C120.319 123.879 111.6 113.979 111.6 102.609V83.7891L137.902 98.6391C140.081 99.8508 142.929 99.2836 144.324 97.3758C145.719 95.468 145.051 92.9156 142.9 91.6781L111.6 74.018V73.9148L98.7834 66.6703C96.6619 65.4844 94.7438 64.0664 93 62.5195C91.2853 64.0664 89.3381 65.4844 87.2166 66.6703L74.4 73.9148L46.8488 89.4609L42.9253 91.6781C42.9253 91.6781 42.9253 91.6781 42.8963 91.6781C40.7456 92.9156 40.1063 95.4422 41.5013 97.3758C42.8672 99.3094 45.7444 99.8766 47.9241 98.6391L74.4 83.6859V102.609C74.4 113.979 65.6813 123.879 53.2716 126.612L32.1431 131.304C30.0797 131.768 27.9872 132 25.8656 132C11.5959 132 0 121.739 0 109.055V107.25C0 106.915 0.0290625 106.554 0.058125 106.219C2.15062 91.2914 9.67781 75.4359 17.3794 62.3133C25.1681 49.0359 33.5381 37.8727 38.0138 32.175C41.7919 27.3797 47.895 24.75 54.2306 24.75C65.3906 24.75 74.4 32.7422 74.4 42.6164V54.3469L77.2481 52.7484C81.2588 50.4797 83.7 46.5352 83.7 42.307V8.25C83.7 3.68672 87.8559 0 93 0Z" fill="white"/>
</g>
<defs>
<clipPath id="clip0_20_4546">
<path d="M0 0H186V132H0V0Z" fill="white"/>
</clipPath>
</defs>
</svg>
